<?xml version="1.0" encoding="UTF-8"?>
<svg id="Ebene_1" data-name="Ebene 1" xmlns="http://www.w3.org/2000/svg" version="1.1" xmlns:xlink="http://www.w3.org/1999/xlink" viewBox="0 0 5652.9 1455">
  <defs>
    <style>
      .cls-1 {
        fill-rule: evenodd;
      }

      .cls-1, .cls-2, .cls-3, .cls-4, .cls-5, .cls-6 {
        stroke-width: 0px;
      }

      .cls-1, .cls-6 {
        fill: #fff;
      }

      .cls-2 {
        fill: #ff4b55;
      }

      .cls-7 {
        clip-path: url(#clippath-2);
      }

      .cls-3 {
        fill: #f5f5f5;
      }

      .cls-4 {
        fill: none;
      }

      .cls-8 {
        clip-path: url(#clippath-1);
      }

      .cls-5 {
        fill: #73af00;
      }

      .cls-9 {
        clip-path: url(#clippath);
      }

      .cls-10 {
        clip-path: url(#clippath-3);
      }
    </style>
    <clipPath id="clippath">
      <path class="cls-4" d="M1161.5,1450.5c-154.2,0-280-126-280-280.5s125.8-280.5,280-280.5,280,126,280,280.5-125.8,280.5-280,280.5Z"/>
    </clipPath>
    <clipPath id="clippath-1">
      <path class="cls-4" d="M1161.5,1450.5c-154.2,0-280-126-280-280.5s125.8-280.5,280-280.5,280,126,280,280.5-125.8,280.5-280,280.5Z"/>
    </clipPath>
    <clipPath id="clippath-2">
      <path class="cls-4" d="M1161.5,1450.5c-154.2,0-280-126-280-280.5s125.8-280.5,280-280.5,280,126,280,280.5-125.8,280.5-280,280.5Z"/>
    </clipPath>
    <clipPath id="clippath-3">
      <path class="cls-4" d="M1161.5,1450.5c-154.2,0-280-126-280-280.5s125.8-280.5,280-280.5,280,126,280,280.5-125.8,280.5-280,280.5Z"/>
    </clipPath>
  </defs>
  <g>
    <g class="cls-9">
      <rect class="cls-6" x="739" y="885" width="844" height="570"/>
    </g>
    <g class="cls-8">
      <path class="cls-2" d="M1583,1074.7h-844v-174.7c0-8.3,6.5-15,14.6-15h814.9c8,0,14.6,6.7,14.6,15v174.7h-.1Z"/>
    </g>
    <g class="cls-7">
      <path class="cls-5" d="M1568.4,1454.1h-814.9c-8,0-14.6-6.7-14.6-15v-174.7h844v174.7c.1,8.3-6.4,15-14.5,15Z"/>
    </g>
    <g class="cls-10">
      <path class="cls-3" d="M1583,1074.7h-844v189.7h844v-189.7Z"/>
    </g>
  </g>
  <path class="cls-6" d="M1161.5,895.9c150.4,0,273.6,123.4,273.6,274.1s-123.2,274.1-273.6,274.1-273.6-123.4-273.6-274.1,123.1-274.1,273.6-274.1ZM1161.5,885c-157,0-284.5,127.8-284.5,285s127.5,285,284.5,285,284.5-127.8,284.5-285-127.5-285-284.5-285Z"/>
  <path class="cls-1" d="M767.5,773.5c-.3,0-35.4-4.5-39.5-4.7-.4,0-.9,0-1.5,0-3.2,0-8.7-.3-12.6-.6-2.8-.2-5.9-2.5-6-5.3,0-1.4,0-3,0-4.7s0-2.9,0-4.3c0-6.1.7-16,1-18.3,0,0,0-.3.2-.5.2-.4.7-.5,1.1-.5h7.8c1.2,0,1.2,3,1.1,4.8v.4c0,1.6-.3,14-.3,15.7s3.4,3.2,7.7,3.1c4.3-.2,41.3-2.3,42-2.3h0c.7,0,77.4-3.4,85.5-3.8s9.3-12.2,9.2-21.4c0-5.7-1.3-11.3-2.2-14.7-.5-2-2.4-3.4-4.5-3.4l-9.3-.2c-1.4,0-2.5-1.2-2.4-2.7,0-1.4,1.2-2.4,2.6-2.3l23.1,1c2.3,0,4.2,1.8,5.3,3.9.8,1.5,2.1,2.8,3.8,2.8s1.9-.5,2.5-1.2c0,0,.2-.3.3-.4,1.7-2,3.6-4.3,6.2-4.2,2.7,0,4.8,2.3,4.7,5,0,4.4-.2,10.7-.3,13.9,0,5.4,2.3,10.4,5.8,10.6,1.4,0,2.4-.5,3.1-1.4,1.7-2,3.8-4.1,6.3-4l7.8.3c2.7,0,4.7,2.4,5.6,4.9.7,1.8,1.9,3.4,4,3.4,2.2.2,3.5-1.4,4.4-3.2,1.1-2.4,3.3-4.5,6-4.4l50.6,1.8c1.7,0,3,1.3,4.3,2.5.7.6,1.4,1.3,2.1,1.8.4.2.9.4,1.4.4,1,0,1.9-.5,2.5-1.1,1.6-1.5,3.4-3,5.6-3l20.2.6c1.5,0,2.9-.6,3.9-1.7l.4-.4c1.9-2.2,5.4-2.3,7.6-.3,3.3,2.8,8,6.2,11.5,6.1,5.9,0,15.6-8.1,19.4-16.5,1.7-3.7,2.6-7,3.1-9.5.6-2.7,2.8-4.9,5.6-4.9,23,0,119-.3,128.3-.3,10.6-.2,11.7-27.5,10.9-25.7-.4,1-1.8,4.6-2.8,7.4-.8,2.1-2.9,3.4-5.1,3.2l-144.2-11.7c-1.6,0-3-1-4.1-2.2-2.2-2.3-6.6-6-13.3-6.5-6.4-.5-10.9,2.4-13.3,4.5-1.4,1.2-3.3,2-5.2,1.7l-122.5-19.8c-1.6-.2-2.9-1.2-3.8-2.5-2.7-3.8-9.6-11.3-21.5-11.6-7-.3-10.9,1.5-13.1,3.3-2,1.7-4.7,3.3-7.3,2.9-127.1-22.6-139.8-36-141.1-38,0-.2,0-.3-.2-.5-.2-2.3-1.8-18.4-1.8-41.8,0-94.1-39.7-147.9-55.7-147.9h-.4c-16,0-55.7,53.8-55.7,147.9s-1.5,39.5-1.8,41.8c0,.2,0,.4,0,.5-1.2,2-14,15.4-141.1,38-2.6.5-5.3-1.2-7.3-2.9-2.2-1.8-6.2-3.6-13.1-3.3-11.8.3-18.7,7.8-21.4,11.6-.9,1.3-2.3,2.2-3.8,2.5l-122.5,19.8c-1.8.3-3.7-.5-5.2-1.7-2.4-2.1-6.9-4.9-13.3-4.5-6.8.5-11.2,4.2-13.3,6.5-1.1,1.2-2.5,2-4.1,2.2l-144.2,11.7c-2.2.2-4.3-1.1-5.1-3.2-1-2.8-2.4-6.4-2.8-7.4-.7-1.8.4,25.5,10.9,25.7,9.3,0,105.2.3,128.3.3s5,2.2,5.6,4.9c.5,2.5,1.4,5.7,3.1,9.5,3.8,8.5,13.5,16.5,19.4,16.5,3.5,0,8.2-3.3,11.5-6.1,2.2-1.9,5.7-1.9,7.6.3l.4.4c1,1.1,2.4,1.7,3.9,1.7l20.2-.6c2.2,0,4,1.5,5.6,3,.7.6,1.5,1.1,2.5,1.1s1-.2,1.4-.4c.8-.5,1.4-1.1,2.1-1.8,1.3-1.2,2.6-2.4,4.3-2.5l50.6-1.8c2.7,0,4.8,2,6,4.4.8,1.8,2.2,3.3,4.4,3.2,2.2,0,3.4-1.6,4-3.4.9-2.5,2.9-4.8,5.6-4.9l7.8-.3c2.6,0,4.6,2,6.3,4,.7.8,1.7,1.4,3.1,1.4,3.4-.2,5.8-5.2,5.8-10.6,0-3.2-.2-9.5-.3-13.9,0-2.7,2.1-4.9,4.7-5s4.5,2.2,6.2,4.2c0,0,.2.3.3.4.6.7,1.4,1.2,2.5,1.2,1.8,0,3-1.3,3.8-2.8,1.1-2,3-3.8,5.3-3.9l23.1-1c1.3,0,2.5,1,2.6,2.3,0,1.4-1,2.6-2.4,2.7l-9.4.2c-2.1,0-3.9,1.4-4.5,3.4-.9,3.4-2.1,9-2.2,14.7-.2,9.2,1.1,21.1,9.2,21.4,8,.4,84.8,3.7,85.5,3.8h0c.7,0,37.7,2.2,42,2.3,4.3.2,7.7-1.2,7.7-3.1s-.3-14-.4-15.7v-.2h0c-.2-1.9,0-4.9,1.1-4.9h7.8c.4,0,.9,0,1.1.5,0,0,.2.3.2.5.4,2.3,1,12.2,1,18.3s0,2.9,0,4.3,0,3.3,0,4.7c0,2.8-3.3,5.1-6,5.2-3.8.2-9,.5-12.2.6-.8,0-1.4,0-1.9,0-4.1.2-39.2,4.6-39.5,4.7h0c-.3,0-75.2,9.2-77.2,9.5s-1.8,3.8,0,3.8,2,0,4.7.3c13.8.8,54.9,3.4,81.5,2.6,27.3-.9,60.8-2.1,70.1-2.4,1.6,0,3.1.6,4.1,1.8,3.9,4.4,13.9,15.3,22.1,18.4-.7.5-.9.8,0,.8h8.1c1,0,.8-.3,0-.8,8.2-3,18.3-13.9,22.1-18.4,1-1.2,2.5-1.9,4.1-1.8,9.3.3,42.8,1.5,70.1,2.4,26.6.8,67.7-1.8,81.5-2.6,2.7-.2,4.4-.3,4.7-.3,1.8,0,2-3.4,0-3.8-1.8-.4-76.8-9.5-77.1-9.5h0Z"/>
  <path class="cls-6" d="M1914,1153.2V305.8h221v847.4h-221Z"/>
  <path class="cls-6" d="M2906.8,305.8h223.4l-385.6,847.4h-175.4l-385.6-847.4h229.4l246.2,572.1,247.6-572.1Z"/>
  <path class="cls-6" d="M3739,1153.2l-75.7-175.5h-374.8l-75.7,175.5h-222.2l395.2-847.4h175.4l396.4,847.4h-218.6ZM3359.5,811.8h233l-116.5-271.6-116.5,271.6Z"/>
  <path class="cls-6" d="M4387.9,1164c-86.5,0-161.8-17.6-225.8-52.9-63.3-36-112.1-86.5-146.5-151.4-34.4-65.7-51.6-142.6-51.6-230.8s17.2-164.7,51.6-229.6c34.4-65.7,83.3-116.2,146.5-151.4,64.1-35.3,139.3-52.9,225.8-52.9s161.4,17.6,224.6,52.9c64.1,35.2,112.9,85.7,146.5,151.4,34.4,64.9,51.6,141.4,51.6,229.6s-17.2,165.1-51.6,230.8c-34.4,64.9-83.7,115.4-147.7,151.4-63.3,35.3-137.8,52.9-223.4,52.9ZM4387.9,994.5c64.1,0,114.1-22.4,150.1-67.3,36-45.7,54.1-111.8,54.1-198.3s-18.4-152.2-55.2-197.1c-36-44.9-85.7-67.3-148.9-67.3s-114.1,22.4-150.1,67.3c-36,44.1-54.1,109.8-54.1,197.1s18,153.4,54.1,198.3c35.9,44.9,85.9,67.3,150,67.3Z"/>
  <path class="cls-6" d="M5251.2,576.7h49.1v339.3h-49.1v-152.1h-189.6v152.1h-49.1v-339.3h49.1v146.8h189.6v-146.8ZM5514.8,919.8c-45.2,0-79.6-11.7-103-35.1s-35.1-57.9-35.1-103.5v-204.6h49.1v207.9c0,31.1,7.4,54.7,22.1,70.8,15.1,16.1,37.4,24.1,66.9,24.1s51.3-8,66.4-24.1c15.1-16,22.6-39.6,22.6-70.8v-207.9h49.1v204.6c0,45.2-11.9,79.7-35.6,103.5-23.4,23.4-57.5,35.1-102.5,35.1Z"/>
  <path class="cls-6" d="M660,0C295.5,0,0,295.5,0,660s295.5,660,660,660,105.3-6.3,155-18.3c-6.1-16.1-11.2-32.8-15-49.9-45,10.6-91.8,16.2-140,16.2-335.8,0-608-272.2-608-608S324.2,52,660,52s608,272.2,608,608-6.4,101.6-18.5,149.4c17,4.1,33.6,9.4,49.6,15.8,13.7-52.8,20.9-108.2,20.9-165.2C1320,295.5,1024.5,0,660,0Z"/>
</svg>